# xmcd
#
# Track frame offsets:
#	150
#	22835
#	40173
#	54387
#	73449
#	97573
#	115639
#	131084
#	146238
#	167386
#	182018
#	198886
#	216113
#	231386
#	246007
#
# Disc length: 3406 seconds
#
# Revision: 0
# Processed by: cddbd v1.5.2PL0 Copyright (c) Steve Scherf et al.
# Submitted via: EasyCDDAExtractor 10.0.2.1
#
DISCID=ca0d4c0f
DTITLE=Darryl R. Johnson - Another Love Affair
DYEAR=2003
DGENRE=Ambient
TTITLE0=You Came First At Last
TTITLE1=Let Me Count The Ways
TTITLE2=Can He Rock You Like This
TTITLE3=Friend Or Foe
TTITLE4=Remember What I Told You To Forget
TTITLE5=It Can Happen
TTITLE6=Another Love Affair
TTITLE7=Lightin' Up The Night
TTITLE8=Save It For A Rainy Day
TTITLE9=The Word Is Out
TTITLE10=Who's Foolin' Who
TTITLE11=Please, Help Me Find Her
TTITLE12=Traffic Jam
TTITLE13=You Stepped Into My Life
TTITLE14=Doin' Alright
EXTD=
EXTT0=
EXTT1=
EXTT2=
EXTT3=
EXTT4=
EXTT5=
EXTT6=
EXTT7=
EXTT8=
EXTT9=
EXTT10=
EXTT11=
EXTT12=
EXTT13=
EXTT14=
PLAYORDER=
